<svg id="visual" viewBox="0 0 675 900" width="675" height="900" xmlns="http://www.w3.org/2000/svg" xmlns:xlink="http://www.w3.org/1999/xlink" version="1.1"><path d="M600 900L603.3 881.3C606.7 862.7 613.3 825.3 606.5 787.8C599.7 750.3 579.3 712.7 576 675.2C572.7 637.7 586.3 600.3 594.3 562.8C602.3 525.3 604.7 487.7 604.7 450.2C604.7 412.7 602.3 375.3 595.5 337.8C588.7 300.3 577.3 262.7 576.2 225.2C575 187.7 584 150.3 594.2 112.8C604.3 75.3 615.7 37.7 621.3 18.8L627 0L675 0L675 18.8C675 37.7 675 75.3 675 112.8C675 150.3 675 187.7 675 225.2C675 262.7 675 300.3 675 337.8C675 375.3 675 412.7 675 450.2C675 487.7 675 525.3 675 562.8C675 600.3 675 637.7 675 675.2C675 712.7 675 750.3 675 787.8C675 825.3 675 862.7 675 881.3L675 900Z" fill="#00bb4a"></path><path d="M526 900L527 881.3C528 862.7 530 825.3 525.5 787.8C521 750.3 510 712.7 506.7 675.2C503.3 637.7 507.7 600.3 518.8 562.8C530 525.3 548 487.7 551.3 450.2C554.7 412.7 543.3 375.3 534.3 337.8C525.3 300.3 518.7 262.7 516.5 225.2C514.3 187.7 516.7 150.3 528 112.8C539.3 75.3 559.7 37.7 569.8 18.8L580 0L628 0L622.3 18.8C616.7 37.7 605.3 75.3 595.2 112.8C585 150.3 576 187.7 577.2 225.2C578.3 262.7 589.7 300.3 596.5 337.8C603.3 375.3 605.7 412.7 605.7 450.2C605.7 487.7 603.3 525.3 595.3 562.8C587.3 600.3 573.7 637.7 577 675.2C580.3 712.7 600.7 750.3 607.5 787.8C614.3 825.3 607.7 862.7 604.3 881.3L601 900Z" fill="#00d152"></path><path d="M418 900L396.5 881.3C375 862.7 332 825.3 311.7 787.8C291.3 750.3 293.7 712.7 306.2 675.2C318.7 637.7 341.3 600.3 353.7 562.8C366 525.3 368 487.7 371.3 450.2C374.7 412.7 379.3 375.3 374.8 337.8C370.3 300.3 356.7 262.7 351 225.2C345.3 187.7 347.7 150.3 355.7 112.8C363.7 75.3 377.3 37.7 384.2 18.8L391 0L581 0L570.8 18.8C560.7 37.7 540.3 75.3 529 112.8C517.7 150.3 515.3 187.7 517.5 225.2C519.7 262.7 526.3 300.3 535.3 337.8C544.3 375.3 555.7 412.7 552.3 450.2C549 487.7 531 525.3 519.8 562.8C508.7 600.3 504.3 637.7 507.7 675.2C511 712.7 522 750.3 526.5 787.8C531 825.3 529 862.7 528 881.3L527 900Z" fill="#00e85a"></path><path d="M337 900L323.5 881.3C310 862.7 283 825.3 269.5 787.8C256 750.3 256 712.7 267.2 675.2C278.3 637.7 300.7 600.3 313 562.8C325.3 525.3 327.7 487.7 327.7 450.2C327.7 412.7 325.3 375.3 318.5 337.8C311.7 300.3 300.3 262.7 295.8 225.2C291.3 187.7 293.7 150.3 298.2 112.8C302.7 75.3 309.3 37.7 312.7 18.8L316 0L392 0L385.2 18.8C378.3 37.7 364.7 75.3 356.7 112.8C348.7 150.3 346.3 187.7 352 225.2C357.7 262.7 371.3 300.3 375.8 337.8C380.3 375.3 375.7 412.7 372.3 450.2C369 487.7 367 525.3 354.7 562.8C342.3 600.3 319.7 637.7 307.2 675.2C294.7 712.7 292.3 750.3 312.7 787.8C333 825.3 376 862.7 397.5 881.3L419 900Z" fill="#00ff62"></path><path d="M215 900L207.2 881.3C199.3 862.7 183.7 825.3 179.2 787.8C174.7 750.3 181.3 712.7 191.3 675.2C201.3 637.7 214.7 600.3 212.5 562.8C210.3 525.3 192.7 487.7 192.7 450.2C192.7 412.7 210.3 375.3 213.7 337.8C217 300.3 206 262.7 196 225.2C186 187.7 177 150.3 183.7 112.8C190.3 75.3 212.7 37.7 223.8 18.8L235 0L317 0L313.7 18.8C310.3 37.7 303.7 75.3 299.2 112.8C294.7 150.3 292.3 187.7 296.8 225.2C301.3 262.7 312.7 300.3 319.5 337.8C326.3 375.3 328.7 412.7 328.7 450.2C328.7 487.7 326.3 525.3 314 562.8C301.7 600.3 279.3 637.7 268.2 675.2C257 712.7 257 750.3 270.5 787.8C284 825.3 311 862.7 324.5 881.3L338 900Z" fill="#42ff77"></path><path d="M33 900L34.2 881.3C35.3 862.7 37.7 825.3 38.8 787.8C40 750.3 40 712.7 40 675.2C40 637.7 40 600.3 40 562.8C40 525.3 40 487.7 40 450.2C40 412.7 40 375.3 44.3 337.8C48.7 300.3 57.3 262.7 61.7 225.2C66 187.7 66 150.3 65 112.8C64 75.3 62 37.7 61 18.8L60 0L236 0L224.8 18.8C213.7 37.7 191.3 75.3 184.7 112.8C178 150.3 187 187.7 197 225.2C207 262.7 218 300.3 214.7 337.8C211.3 375.3 193.7 412.7 193.7 450.2C193.7 487.7 211.3 525.3 213.5 562.8C215.7 600.3 202.3 637.7 192.3 675.2C182.3 712.7 175.7 750.3 180.2 787.8C184.7 825.3 200.3 862.7 208.2 881.3L216 900Z" fill="#5fff8a"></path><path d="M0 900L0 881.3C0 862.7 0 825.3 0 787.8C0 750.3 0 712.7 0 675.2C0 637.7 0 600.3 0 562.8C0 525.3 0 487.7 0 450.2C0 412.7 0 375.3 0 337.8C0 300.3 0 262.7 0 225.2C0 187.7 0 150.3 0 112.8C0 75.3 0 37.7 0 18.8L0 0L61 0L62 18.8C63 37.7 65 75.3 66 112.8C67 150.3 67 187.7 62.7 225.2C58.3 262.7 49.7 300.3 45.3 337.8C41 375.3 41 412.7 41 450.2C41 487.7 41 525.3 41 562.8C41 600.3 41 637.7 41 675.2C41 712.7 41 750.3 39.8 787.8C38.7 825.3 36.3 862.7 35.2 881.3L34 900Z" fill="#77ff9c"></path></svg>