<svg id="visual" viewBox="0 0 960 540" width="960" height="540" xmlns="http://www.w3.org/2000/svg" xmlns:xlink="http://www.w3.org/1999/xlink" version="1.1"><path d="M0 185L87 212L175 190L262 152L349 174L436 131L524 120L611 104L698 179L785 82L873 212L960 87L960 0L873 0L785 0L698 0L611 0L524 0L436 0L349 0L262 0L175 0L87 0L0 0Z" fill="#00cc8e"></path><path d="M0 314L87 320L175 314L262 309L349 303L436 336L524 287L611 379L698 303L785 244L873 303L960 336L960 85L873 210L785 80L698 177L611 102L524 118L436 129L349 172L262 150L175 188L87 210L0 183Z" fill="#00b98a"></path><path d="M0 390L87 357L175 347L262 374L349 352L436 428L524 325L611 422L698 395L785 309L873 384L960 379L960 334L873 301L785 242L698 301L611 377L524 285L436 334L349 301L262 307L175 312L87 318L0 312Z" fill="#00a784"></path><path d="M0 455L87 433L175 482L262 438L349 433L436 476L524 487L611 487L698 460L785 433L873 492L960 471L960 377L873 382L785 307L698 393L611 420L524 323L436 426L349 350L262 372L175 345L87 355L0 388Z" fill="#00957c"></path><path d="M0 541L87 541L175 541L262 541L349 541L436 541L524 541L611 541L698 541L785 541L873 541L960 541L960 469L873 490L785 431L698 458L611 485L524 485L436 474L349 431L262 436L175 480L87 431L0 453Z" fill="#038373"></path></svg>